<svg id="Layer_1" data-name="Layer 1" xmlns="http://www.w3.org/2000/svg" xmlns:xlink="http://www.w3.org/1999/xlink" viewBox="0 0 391.5 626.5"><defs><style>.cls-1{fill:#c69c6d;stroke:#754c24;}.cls-1,.cls-2,.cls-3,.cls-4,.cls-5,.cls-6{stroke-miterlimit:10;}.cls-1,.cls-3,.cls-4,.cls-5{stroke-width:10px;}.cls-2,.cls-6{fill:none;}.cls-2,.cls-4,.cls-5,.cls-6{stroke:#4d4d4d;}.cls-2{stroke-width:2px;}.cls-3{fill:#f2f2f2;stroke:gray;}.cls-4{fill:url(#linear-gradient);}.cls-5{fill:url(#linear-gradient-2);}.cls-6{stroke-width:5px;}.cls-7{fill:#666;}</style><linearGradient id="linear-gradient" x1="-3.08" y1="40.41" x2="263.98" y2="94.53" gradientUnits="userSpaceOnUse"><stop offset="0" stop-color="#e3e3e3"/><stop offset="1" stop-color="#717171"/></linearGradient><linearGradient id="linear-gradient-2" x1="161.5" y1="39.5" x2="230.5" y2="39.5" xlink:href="#linear-gradient"/></defs><title>Findr_UI_Lobby_MatchButton</title><rect class="cls-1" x="5" y="76.5" width="381.5" height="545" rx="32.43"/><line class="cls-2" x1="46.5" y1="77" x2="340.5" y2="77"/><rect class="cls-3" x="21.5" y="99" width="349" height="456"/><path class="cls-4" d="M62.73,48H329.27A41.23,41.23,0,0,1,370.5,89.23V106a0,0,0,0,1,0,0H21.5a0,0,0,0,1,0,0V89.23A41.23,41.23,0,0,1,62.73,48Z"/><circle class="cls-5" cx="196" cy="39.5" r="34.5"/><ellipse class="cls-6" cx="196.39" cy="39.51" rx="13.61" ry="13.99"/><path class="cls-7" d="M295.31,269.11A140.67,140.67,0,0,0,266.71,236c-22.64-18.86-51.55-29.08-81.08-25-25.38,3.48-45.25,17.62-60,36.92a70.22,70.22,0,0,0-25-4.14c-6,.14-15.41,0-19.68,5s-1.6,11.87,1.8,16.55c5.57,7.67,11.73,15,17.57,22.43a5.5,5.5,0,0,0,.71.73l1.43,2.65.24.44c.06.15.13.3.18.45a191,191,0,0,0-9.81,55.2,178.5,178.5,0,0,0,21.19,89.17l-15,3.19c-3.62.77-4.91,5.9-2.21,8.36l30.34,27.64,15.16,13.81c3.62,3.3,7.72,7.23,13,5.09,8.9-3.6,7.91-18.55,6.74-26.17-1.6-10.37-6-20-9.83-29.67-4-10.13-7.55-20.54-6.53-31.59,1.22-13.07,6.77-26,10.73-38.46s6.89-25.83,13-37.28a38.2,38.2,0,0,1,15-15.11c2.43,4.71,5,9.34,7.84,13.83,2.66,4.24,5.71,9,11.45,7.26,4.71-1.4,8-7,10.35-10.95a52.55,52.55,0,0,0,6.15-16.41,5,5,0,0,0,.09-.63,21.68,21.68,0,0,0,.9-4.78,24.14,24.14,0,0,1,12.46,1.17c10.68,4.38,16.3,16.65,21,26.4,1.81,3.79,8.33,2.92,9.14-1.2v0h0a21.67,21.67,0,0,0,9.13-3.33,1,1,0,0,0,.2-1.57,13.22,13.22,0,0,0-5.79-2.84l4.5-3.16a1,1,0,0,0,.2-1.58c-1.48-1.91-3.86-1.09-5.85-1.52l1.86-2.08c.7-.76,1.79-1.64,1.8-2.77s-.87-1.49-1.77-1.74l-.75-.21a1,1,0,0,0,.47-.24l3.09-2.83q1.1,3.48,2.17,7a1,1,0,0,0,1.83.24,22.73,22.73,0,0,1,3.92-4.1,33,33,0,0,0,3.18,7.43,1,1,0,0,0,1.73,0,16.2,16.2,0,0,1,3.09-4.55l3.93,7.5a1,1,0,0,0,1.57.21l4-4.47c.66,2.76,1.3,5.51,1.91,8.28a1,1,0,0,0,1.67.44,35.55,35.55,0,0,0,4.95-7.38,4.94,4.94,0,0,0,2.86-3.27C310.87,297.91,303.85,282.66,295.31,269.11ZM89,256.12a1.26,1.26,0,0,0-.13-.69,2.76,2.76,0,0,0,1-.44c2-1.24,5.92-1,8.19-1.13a66.49,66.49,0,0,1,7.86,0,59.47,59.47,0,0,1,13.77,2.58,153.15,153.15,0,0,0-12.44,24q-5.59-7.15-11.2-14.29c-1.8-2.29-3.78-4.52-5.4-6.94C90.09,258.34,89,257.12,89,256.12Zm121.78,51.1a45,45,0,0,1-3.59,11.15,47.09,47.09,0,0,1-2.4,4.27c-.59.92-1.2,1.81-1.85,2.69a3.77,3.77,0,0,0-1.07.8c-.59-.92-1.17-1.84-1.74-2.77-1-1.57-1.91-3.16-2.83-4.77-1.26-2.2-2.46-4.43-3.63-6.68l1.25-.47c5.23-1.86,10.61-3.33,16-4.72C210.88,306.88,210.84,307,210.8,307.22Zm60,19.31a19.21,19.21,0,0,1-6.46,2.22c.24-1.33.44-2.65.62-4A11.17,11.17,0,0,1,270.82,326.53Zm-3.11-7.65a7.91,7.91,0,0,1,2.07.18l-4.49,3.15c.12-1.19.22-2.38.3-3.58A10.07,10.07,0,0,0,267.71,318.88Zm-2-10.65c0-.35,0-.71,0-1.06q.15-.24.27-.48c.11.79.21,1.58.28,2.37a1.12,1.12,0,0,0,.35.71l-.88-.24C265.75,309.1,265.75,308.67,265.73,308.23Zm1.84,3.87.29.08c-.1,0-.18.11-.24.28a13.94,13.94,0,0,0-1.82,2v0c0-1,0-1.92,0-2.88l.52.15Zm.5-5.1c-.16-1.21-.37-2.41-.62-3.6l3.12,1.3Zm6.56,4.57q-.93-3-1.85-5.94l5.65,2.36A26.31,26.31,0,0,0,274.63,311.57Zm8.41,3.28a31.64,31.64,0,0,1-2.26-5.87l5.19,2.17A18,18,0,0,0,283,314.85Zm9,3.34-3-5.78,5.95,2.5C294,316,293,317.1,292,318.19ZM263.61,291a10.25,10.25,0,0,1-1.58-.52c-2.39-.66-5.71.81-6.15,3.49a26.43,26.43,0,0,0-.23,7.47c0,.34,0,.68.06,1a4.8,4.8,0,0,0-.22,2q.19,2.31.27,4.59c0,1.12-.09,2.24-.18,3.35a48.62,48.62,0,0,0-9.74-11.09c-9.06-7.34-19.85-8.18-31-5.89-21.06,4.33-44.33,11.57-54.56,32.2-5.66,11.43-8.78,24.22-12.65,36.33-4,12.48-9,25.1-11.06,38.08-3.68,23.19,9.61,41.61,15,63.18,1.38,5.57,2.1,11.55.84,17.22a17.08,17.08,0,0,1-.57,2.39c.12-1.17-3.82-4.13-4.31-4.58l-8.67-7.9-27.65-25.19,12.15-2.59c3.17-.67,4.57-4.7,3-7.34-27.48-46-30.86-105.34-9.07-154.32,10.9-24.51,28-49.31,54.38-58.45,25.89-9,54.41-3.89,77.2,10.68A121.23,121.23,0,0,1,281,265.81c8.18,11.17,17.66,25.44,17.72,39.92ZM299.86,322c-.41-1.84-.83-3.69-1.27-5.53l3.12,1.31a3.22,3.22,0,0,0,.81.21A32.4,32.4,0,0,1,299.86,322Z"/><path class="cls-7" d="M251.45,254.06a5,5,0,0,0-5.65-2.29l-2.86.89a5.21,5.21,0,0,0-3,2.3,5.12,5.12,0,0,0-.5,3.85,5.49,5.49,0,0,0,2.48,3.05,3.49,3.49,0,0,0,.15.34,5.1,5.1,0,0,0,3,2.3,5,5,0,0,0,3.85-.51,7.48,7.48,0,0,0,3.26-4.39A7.64,7.64,0,0,0,251.45,254.06Z"/><path class="cls-7" d="M153.4,316.74a48.33,48.33,0,0,0-13.57,2.66c-1.3.48-5.48,2.83-8.34,3.89a2.07,2.07,0,0,1-.08.2c-1,.28-2,.54-3,.77h-.76a2.23,2.23,0,0,1-.74-2.34,116.7,116.7,0,0,1,3.5-11.83c1.23-4.43,3.07-8.74,4.71-13q1.13-2.87,2.21-5.74a4.64,4.64,0,0,0-4.43-.17,55.62,55.62,0,0,0-3.8,5.09,124,124,0,0,0-7.39,15.53c-.47,1.19-1,2.42-1.39,3.68-.57,2-1.07,4-1.48,6a12.74,12.74,0,0,0,.93,6.9,9.23,9.23,0,0,0,4.9,4.77c1.31.12,2.62.21,3.94.21,3.63-1.7,7.18-3.66,10.74-5.48l.07,0c5.62-3.79,12.11-5.95,18-9.29A4.19,4.19,0,0,0,153.4,316.74Z"/><path class="cls-7" d="M253.61,244.81A14.71,14.71,0,0,0,237,247.43c-4.34,4-7.08,11.42-5.22,17.22,1.12,3.51,4.25,5.25,7.34,6.83,3.36,1.73,6.91,2.41,10.31.49a14.82,14.82,0,0,0,11.64-11.79A14.4,14.4,0,0,0,253.61,244.81Zm5.66,13.48a12.85,12.85,0,0,1-10,11.67.87.87,0,0,0-.55.12l-.42.08a.81.81,0,0,0-.64.45c-2.45,1-4.94.47-7.37-.76s-5.08-2.42-6.27-4.87-.9-5.41-.3-7.92a16.55,16.55,0,0,1,3.56-7.08c3.5-4,9.1-5.87,14.17-3.95A12.29,12.29,0,0,1,259.27,258.29Z"/><path class="cls-7" d="M182.19,253.32c.73-1.06-1-2.06-1.73-1a30.23,30.23,0,0,0-5,12.09c-.58,3.56-.29,7.55,2.47,10.17.93.89,2.35-.53,1.41-1.41-2.45-2.33-2.44-6-1.79-9.13A29.75,29.75,0,0,1,182.19,253.32Z"/><path class="cls-7" d="M169.74,254.13a19.28,19.28,0,0,0-1.28,23.36c.74,1.05,2.47.05,1.72-1a17.26,17.26,0,0,1,1-20.93C172,254.58,170.59,253.16,169.74,254.13Z"/><path class="cls-7" d="M163.85,281.45a13.83,13.83,0,0,1-6.95-9.82c-1-5.08.48-10.35,2.54-15,.52-1.17-1.2-2.19-1.73-1-2.3,5.14-3.85,10.85-2.74,16.5a15.69,15.69,0,0,0,7.87,11C164,283.76,165,282,163.85,281.45Z"/><path class="cls-7" d="M353.25,514a1,1,0,0,0-1,.73c-2.07,6.39-9,10.14-15.54,9.64a13,13,0,0,1-4.88-1.34c-1.59-.81-2.92-2-4.58-2.66-3.55-1.5-7.51-1.49-11.3-1.26-4.18.26-8.46.87-12.64.25s-7.66-3.17-11.66-4.45a9.76,9.76,0,0,0-5.66-.27c-2.34.67-4.59,1.6-6.94,2.24a76.39,76.39,0,0,1-15.16,2.56l-1.17.07a17.93,17.93,0,0,0,2.43-2.42c2.07-2.5,4.6-7.43.64-9.55-3.23-1.73-7.91.67-10.64,2.39-3,1.88-5.53,5.68-3.49,9.19a4.78,4.78,0,0,0,3.17,2.18,12.74,12.74,0,0,1-2.22.3,8.94,8.94,0,0,1-4.68-1c-1.6-.89-2.67-2.41-4.32-3.24-3.44-1.74-7.51-1.42-11,0-4.25,1.72-7.46,4.82-11.25,7.24a52.7,52.7,0,0,1-6.06,3.25c-2,1-5.21,2.82-7.38,1.24-1.69-1.22-.51-3.57-.82-5.36a9.23,9.23,0,0,0-2.24-4.42A13.35,13.35,0,0,0,194.62,515c-4.85,0-9.43,1.84-14.13,2.8a38.76,38.76,0,0,1-14.91.07,41,41,0,0,1-6.78-1.93,1,1,0,0,0-1.23.69c-1.09,2.9-4.06,4.34-7,4.77-3.6.54-7.1-.6-10.48-1.69a35.46,35.46,0,0,0-10.77-2.17c-3.72,0-7.41.64-11.12.72A17.63,17.63,0,0,1,107.4,515c-3-2-6-3.56-9.68-3.65-7.5-.17-14.47,3.93-21.73,5.26a49.43,49.43,0,0,1-15.73.29c.88-1.52,1.85-3.13,1.25-4.92a5.66,5.66,0,0,0-3.83-3.39c-4.22-1.16-7.42,2.9-9.35,6a1,1,0,0,0,.6,1.47,52.45,52.45,0,0,0,8,2.26c-.29.4-.57.82-.88,1.2a29.23,29.23,0,0,1-17.25,10.24c-1.27.24-.73,2.17.53,1.93a31.11,31.11,0,0,0,19.8-13,51.58,51.58,0,0,0,13.82.32,57.14,57.14,0,0,0,11.69-2.69c3.9-1.29,7.9-2.85,12.06-3a13.42,13.42,0,0,1,5.43.84,37.53,37.53,0,0,1,5.6,3.38,18.66,18.66,0,0,0,10.54,2.59c4-.09,7.94-.84,11.93-.71s7.92,1.69,11.84,2.84c5.78,1.71,14,1.85,17-4.25a41.29,41.29,0,0,0,14.69,2.4c5.35-.12,10.3-1.68,15.47-2.83,5-1.12,10.62-1.2,14.26,3,1.66,1.94,1.82,3.76,1.49,6.17A4.25,4.25,0,0,0,207.3,531c2,1.12,4.39.53,6.38-.29a63,63,0,0,0,6.82-3.3c4.55-2.56,8.23-6.51,13.18-8.37a12.16,12.16,0,0,1,7-.66c2.28.53,3.47,2,5.27,3.3a11.69,11.69,0,0,0,10,1.37,17.45,17.45,0,0,0,3.63-1.46c1.64,0,3.29-.1,4.91-.22a79.36,79.36,0,0,0,16-2.83c1.32-.38,2.64-.79,3.94-1.25a11.77,11.77,0,0,1,4-1c2.48,0,4.8,1.28,7,2.33a27.46,27.46,0,0,0,6.29,2.42,28.67,28.67,0,0,0,6.73.51c4.51-.11,9-.9,13.56-.48a14.46,14.46,0,0,1,6.37,2,21.05,21.05,0,0,0,4.87,2.58,17.71,17.71,0,0,0,18.66-5.91,14.12,14.12,0,0,0,2-3.54,1.57,1.57,0,0,1,.32,2c-.68,1.09,1,2.1,1.73,1A3.48,3.48,0,0,0,353.25,514Zm-302.54.67c1.7-2.5,4.43-5.52,7.48-3.63,1.76,1.1,1.67,2.48.78,4.13-.27.49-.57,1-.86,1.44A51.31,51.31,0,0,1,50.71,514.65Zm206,4.89c-2.44-.13-4.19-1.5-3.61-4.12.47-2.11,2.32-3.42,4.12-4.39a16.06,16.06,0,0,1,5.3-2,3.68,3.68,0,0,1,2.57.38c1.14.82.87,2.32.41,3.44a13.4,13.4,0,0,1-3.28,4.44,17.34,17.34,0,0,1-3.11,2.29C258.32,519.6,257.52,519.58,256.72,519.54Z"/><path class="cls-7" d="M335.34,391.53c-1.17,3.65-6.75,2.85-9.62,2.46l-16.2-2.18-8.1-1.1a57.81,57.81,0,0,0-8-.87c-2.47,0-4.65.89-7,1.64a23.36,23.36,0,0,1-6.95,1.09c-9.27.14-18.65-3.51-27.77-.44-7.16,2.42-15.76,9.69-23.16,3.82a5.64,5.64,0,0,1-2.34-4.55c0-.12,0-.23,0-.35a32.65,32.65,0,0,0,5.77-2.24c5-2.54,9.23-6.68,11-12.08a1,1,0,0,0-.7-1.23c-4.59-.81-8.49,1.76-11.55,4.94a44,44,0,0,0-4.4,5.42,13,13,0,0,0-1.79,3.52,81.67,81.67,0,0,1-11.83,2,1,1,0,0,0-.27,2l2.39.92c.87.34,1.37-.57,1.14-1.27a75.93,75.93,0,0,0,8.22-1.43,5.51,5.51,0,0,0,.05.81c.44,3.64,3.66,6.07,6.95,7.12,4.25,1.36,8.35.21,12.31-1.55,4.87-2.18,9.32-4.77,14.79-5.05,5.27-.28,10.47.82,15.68,1.36a39.79,39.79,0,0,0,7.56.18,30.93,30.93,0,0,0,7.47-1.78,18.66,18.66,0,0,1,8.85-.45l8.84,1.2c6.63.89,13.26,1.84,19.91,2.68,3.8.49,9.18.31,10.57-4.06C337.66,390.83,335.73,390.3,335.34,391.53Zm-105.41-7c2.61-3.26,6.29-7.29,10.8-7.17-2.43,6.05-7.73,9.38-13.72,11.35A24.33,24.33,0,0,1,229.93,384.5Z"/><path class="cls-7" d="M330.61,432.14c-8.82.13-17.65.45-26.47.35a29.7,29.7,0,0,1-9.42-1.33,11.49,11.49,0,0,1-4-2.26,5.56,5.56,0,0,1-.43-.42A33.84,33.84,0,0,0,302,424.42a1,1,0,0,0,0-1.73c-3.71-1.74-8.76-2.81-12.72-1.23a4,4,0,0,0-2.82,4,5,5,0,0,0,.37,1.45c-5.71.48-11.58,0-17.32-.37a35.43,35.43,0,0,0-8.73.36c-2.51.47-4.93,1.4-7.47,1.65a7.82,7.82,0,0,1-3.53-.34,14,14,0,0,1-3.1-2.2c-2.21-1.63-4.83-.9-7.32-.5L219,428.73c-1.27.2-.73,2.13.53,1.92l18.11-2.91c1.45-.23,2.88-.48,4.33-.69a4.62,4.62,0,0,1,4.18,1.11,8.82,8.82,0,0,0,6.3,2.4,38.78,38.78,0,0,0,7.53-1.5,30.77,30.77,0,0,1,8.51-.61c5.63.26,11.19,1,16.84.61q1.29-.09,2.58-.24a10.9,10.9,0,0,0,1.14,1.27c2.64,2.56,6.32,3.6,9.87,4.06a92.3,92.3,0,0,0,13.2.25l18.45-.26A1,1,0,0,0,330.61,432.14Zm-42-7.79c.88-1.62,3.85-1.59,5.39-1.56a16.51,16.51,0,0,1,5.12.9,32.63,32.63,0,0,1-10.24,3A2.42,2.42,0,0,1,288.6,424.35Z"/><path class="cls-7" d="M330.13,465.46c-2.35-1.94-5.42-.89-8,.05-6.79,2.5-13.85,1.23-20.82.31l-22.2-2.94c-7.21-.95-14.5-2.1-21.8-1.69a79.05,79.05,0,0,0-11.52,1.89c-3.9.8-7.9,1.31-11.7-.23a1,1,0,0,0-1,.25,25.88,25.88,0,0,1-13.58,7.84c-1.25.27-.72,2.2.54,1.93a27.72,27.72,0,0,0,14-7.9c5.9,2.12,12.15-.12,18.06-1.18,6.69-1.2,13.53-.62,20.23.21,7,.86,13.92,1.83,20.88,2.75l10.24,1.36a80,80,0,0,0,9.65.91,28.67,28.67,0,0,0,10.32-1.89c1.47-.52,3.41-1.26,4.9-.44.91.51,2,2,1.16,3s.57,2.39,1.42,1.42C332.54,469.29,331.83,466.87,330.13,465.46Z"/><path class="cls-7" d="M332.09,489.79q-35.88,0-71.71,2.46c-3.05.21-6.39.82-9.42.13-2.53-.57-5.29-2.81-4.45-5.7a1,1,0,0,0-1.46-1.13,52.46,52.46,0,0,1-29.79,7c-1.28-.09-1.28,1.91,0,2a54.29,54.29,0,0,0,29.15-6.33,6.53,6.53,0,0,0,1.9,3.9,9.61,9.61,0,0,0,6.57,2.53,77.54,77.54,0,0,0,9-.48c3.31-.23,6.63-.43,9.94-.63Q291,492.41,310.17,492q10.95-.22,21.92-.22A1,1,0,0,0,332.09,489.79Z"/><path class="cls-7" d="M314.47,155.5c-15.25,5.34-31.66,4.06-47.29,1.28-3.95-.7-7.88-1.5-11.81-2.33-3-.62-6.91-.94-9.17-3.18a3.9,3.9,0,0,1-1.22-2.71c4.22.14,8.44,2.07,12.35,3.67a36.56,36.56,0,0,0,9.18,2.77,26.79,26.79,0,0,0,11.36-1.38c1.87-.58,3.72-1.28,5.55-2a1,1,0,0,0,.24-1.83,48.81,48.81,0,0,0-22.45-9.34c-3.77-.54-8-.95-11.67.16a9,9,0,0,0-6.31,5.94l-.66.06c-6.29.84-10.18,6.1-15.45,9-3.38,1.86-7,1.79-10.72,1.26a68,68,0,0,0-11.49-.9c-7.72.2-15.39,1.71-23.13,1.32a34.48,34.48,0,0,1-11.12-2.39,92,92,0,0,1-9.78-4.9,69.45,69.45,0,0,0-9.39-4.45,50.71,50.71,0,0,0-10.75-2.35c-3.79-.5-7.61-.8-11.37-1.5a39.25,39.25,0,0,1-10.43-3.52c-3.17-1.58-6.36-3.34-9.9-3.89a22.94,22.94,0,0,0-10.88,1.26C90.73,138.11,83.57,142,76.82,146c-1.7,1-3.37,2-5,3.08-1.09.69-.09,2.42,1,1.72a167.27,167.27,0,0,1,21-11.29c3.59-1.61,7.41-3.13,11.39-3.37s7.41,1.13,10.87,2.86a49.84,49.84,0,0,0,9.81,4,80.67,80.67,0,0,0,10.94,1.76,78.21,78.21,0,0,1,11.08,1.79,48.16,48.16,0,0,1,10.16,4.2c6.25,3.31,12.35,7,19.46,8.13,7.6,1.17,15.25,0,22.85-.63a60.77,60.77,0,0,1,11.68,0c3.74.44,7.48,1.39,11.26.81,6.33-1,10.2-6.48,15.64-9.24a12.06,12.06,0,0,1,4.08-1.21c.13,2.91,2.38,5,5.06,6a32.33,32.33,0,0,0,5.22,1.37q3.28.71,6.55,1.36a178.35,178.35,0,0,0,26.11,3.67c9.82.51,19.76-.38,29.08-3.64C316.21,157,315.69,155.07,314.47,155.5Zm-66-12.29c3.21-1.67,7.3-1.33,10.79-1a47.13,47.13,0,0,1,21.82,8.16,40.42,40.42,0,0,1-9.86,2.65A22.93,22.93,0,0,1,261,151.52c-5-1.82-10.15-4.72-15.59-5A6.93,6.93,0,0,1,248.46,143.21Z"/><path class="cls-7" d="M296.86,173.65c-7-.26-13.88,3.12-20.28,5.51a52.11,52.11,0,0,1-10.87,3,48.83,48.83,0,0,1-12.2,0c-8.07-.87-16-2.81-24.06-3.81-16.14-2-32.45-1.95-48.61-3.8a171.8,171.8,0,0,1-24.32-4.72c-7.73-2.05-15.44-4-23.44-4.54A87.9,87.9,0,0,0,110,167.06a103.13,103.13,0,0,0-11.35,3c-2.9,1-6,2.69-9.14,2.52-1.18-.07-2.19-.43-2.39-1.7s-2.12-.73-1.93.54c.38,2.45,2.87,3.24,5.06,3.16,3.19-.12,6.16-1.69,9.15-2.66a94.85,94.85,0,0,1,23.16-4.6,81.74,81.74,0,0,1,23.7,2c7.86,1.8,15.56,4.23,23.5,5.67,16,2.88,32.19,3.05,48.31,4.29a237.48,237.48,0,0,1,24.35,3.2c7.77,1.42,15.71,2.81,23.62,1.69,7.36-1,14-4.49,21-6.73,3.23-1,6.74-2,10.16-1.77,2.59.15,5.56,1,7.34,3a4.66,4.66,0,0,1,1.21,3.31,1,1,0,0,0,2,0C307.83,176.37,301.63,173.82,296.86,173.65Z"/></svg>